

<svg xmlns="http://www.w3.org/2000/svg" width="17" height="19" viewBox="0 0 17 19">
  <path id="icon-login" d="M30.75,25.506a5.57,5.57,0,0,1-5.445-4.528,5.641,5.641,0,0,1,3.319-6.294,5.509,5.509,0,0,1,6.739,2.07,5.682,5.682,0,0,1-.688,7.1A5.479,5.479,0,0,1,30.75,25.506Zm0-9.52a3.9,3.9,0,1,0,3.844,3.891A3.87,3.87,0,0,0,30.75,15.986ZM38.4,33.255a.86.86,0,0,1-.854-.865,6.793,6.793,0,1,0-13.585,0,.854.854,0,1,1-1.708,0,8.589,8.589,0,0,1,6.814-8.441,8.478,8.478,0,0,1,9.518,5.087,8.649,8.649,0,0,1,.668,3.354A.87.87,0,0,1,39,33,.847.847,0,0,1,38.4,33.255Z" transform="translate(-22.25 -14.255)"/>
</svg>
