<svg xmlns="http://www.w3.org/2000/svg" width="17" height="19.824" viewBox="0 0 17 19.824">
  <path id="icon-bag" d="M16.489,4A3.02,3.02,0,0,0,13.3,6.832V8.956H10.117a.708.708,0,0,0-.708.634L7.993,23.042a.708.708,0,0,0,.708.782H24.277a.708.708,0,0,0,.708-.782L23.569,9.59a.708.708,0,0,0-.708-.634H19.675V6.832A3.02,3.02,0,0,0,16.489,4Zm-1.77,2.832a1.623,1.623,0,0,1,1.77-1.416,1.623,1.623,0,0,1,1.77,1.416V8.956h-3.54Zm7.5,3.54,1.267,12.036h-14l1.267-12.036H13.3v1.416a.708.708,0,1,0,1.416,0V10.372h3.54v1.416a.708.708,0,0,0,1.416,0V10.372Z" transform="translate(-7.989 -4)"/>
</svg>
