<svg xmlns="http://www.w3.org/2000/svg" width="256" height="48" viewBox="0 0 246 48">
  <g id="Logo" transform="translate(-348 -24)">
    <text id="Fashion" transform="translate(388 62)" font-size="38" font-family="Gilroy-Black, Gilroy" font-weight="800"><tspan x="0" y="0">Fashion</tspan></text>
    <text id="Store" transform="translate(531 62)" fill="#bf286f" font-size="21" font-family="Gilroy-Medium, Gilroy" font-weight="500"><tspan x="0" y="0">STORE</tspan></text>
    <g id="Group_201" data-name="Group 201" transform="translate(-618.387 -829.513)">
      <path id="Path_126" data-name="Path 126" d="M1048.77,937.081a6.013,6.013,0,0,0-4.465,1.791,6.246,6.246,0,0,0-1.767,4.581,7.842,7.842,0,0,0,.047.853l7.157-7.157A6.915,6.915,0,0,0,1048.77,937.081Z" transform="translate(-66.116 -65.508)" fill="#821c5a"/>
      <path id="Path_127" data-name="Path 127" d="M996.413,861.631H969.375a3,3,0,0,0-2.988,2.988v26.823a3,3,0,0,0,2.988,2.988h27.038a3,3,0,0,0,2.988-2.988V864.619A3,3,0,0,0,996.413,861.631Zm-7.527,26.942a12.324,12.324,0,1,1-6.186-22.907,12.056,12.056,0,0,1,6.186,1.628,10.939,10.939,0,0,1,3.536,3.224l-12.954,12.954a6.272,6.272,0,0,0,3.185.8,6.377,6.377,0,0,0,3.233-.814A5.124,5.124,0,0,0,988,881.2l5.209,2.977A11.643,11.643,0,0,1,988.886,888.573Zm6.481-9.832h-4.288v-1.591h4.288Z" fill="#821c5a"/>
    </g>
  </g>
</svg>
